<svg width="512" height="512" viewBox="0 0 512 512" xmlns="http://www.w3.org/2000/svg">
  <defs>
    <linearGradient id="bg" x1="0%" y1="0%" x2="100%" y2="100%">
      <stop offset="0%" style="stop-color:#1976d2;stop-opacity:1" />
      <stop offset="100%" style="stop-color:#0d47a1;stop-opacity:1" />
    </linearGradient>
  </defs>
  
  <!-- Background circle -->
  <circle cx="256" cy="256" r="240" fill="url(#bg)" stroke="#fff" stroke-width="8"/>
  
  <!-- Music note -->
  <g fill="#ffffff">
    <!-- Note stem -->
    <rect x="200" y="120" width="8" height="200" rx="4"/>
    
    <!-- Note head -->
    <ellipse cx="180" cy="320" rx="24" ry="16"/>
    
    <!-- Flag -->
    <path d="M208 120 Q280 100 320 140 Q300 160 280 170 Q240 180 208 160 Z"/>
    
    <!-- Sync waves -->
    <circle cx="350" cy="200" r="3" opacity="0.8"/>
    <circle cx="370" cy="220" r="2" opacity="0.6"/>
    <circle cx="390" cy="240" r="1" opacity="0.4"/>
    
    <circle cx="350" cy="280" r="3" opacity="0.8"/>
    <circle cx="370" cy="300" r="2" opacity="0.6"/>
    <circle cx="390" cy="320" r="1" opacity="0.4"/>
  </g>
  
  <!-- Sync symbol -->
  <g stroke="#ffffff" stroke-width="3" fill="none" opacity="0.7">
    <path d="M120 200 Q140 180 160 200 Q180 220 200 200"/>
    <path d="M120 280 Q140 260 160 280 Q180 300 200 280"/>
  </g>
</svg>